<svg width="42" height="28" viewBox="0 0 42 28" fill="none" xmlns="http://www.w3.org/2000/svg">
<path d="M17.8453 13.3522V22.3856C17.8453 23.1534 17.6179 23.8852 17.1629 24.581C16.7431 25.2528 16.1657 25.8406 15.4309 26.3445C14.6962 26.8483 13.8213 27.2442 12.8067 27.5321C11.8269 27.8441 10.7772 28 9.65745 28C8.53771 28 7.48804 27.8561 6.50825 27.5682C5.52855 27.2802 4.67127 26.8964 3.93641 26.4165C3.20164 25.9126 2.60683 25.3368 2.15197 24.689C1.73201 24.0172 1.50462 23.2973 1.46963 22.5296V15.8715C1.36467 15.1277 0.874727 14.5878 0 14.252C0.489847 14.084 0.979694 14 1.46963 14V5.50644C1.50462 4.73867 1.73201 4.01886 2.15197 3.34706C2.60683 2.67526 3.20164 2.09943 3.93641 1.61951C4.67127 1.11571 5.52855 0.719816 6.50825 0.431902C7.48804 0.143924 8.53771 0 9.65745 0C10.7772 0 11.8269 0.15593 12.8067 0.467853C13.8213 0.755767 14.6962 1.15166 15.4309 1.65552C16.1657 2.15939 16.7431 2.75922 17.1629 3.45503C17.6179 4.12683 17.8453 4.85859 17.8453 5.65037C17.8453 6.05826 17.8978 6.35818 18.0028 6.55012C18.1427 6.74206 18.2827 6.89806 18.4226 7.01797C18.5626 7.13795 18.6851 7.24593 18.7901 7.3419C18.93 7.43787 19 7.5938 19 7.80975H16.2707C15.7108 7.7618 15.4309 7.55785 15.4309 7.19798C15.4309 7.55785 15.151 7.7618 14.5911 7.80975H11.8094C11.8094 7.5938 11.8619 7.43787 11.9668 7.3419C12.1068 7.24593 12.2467 7.13795 12.3867 7.01797C12.5266 6.89806 12.6492 6.74206 12.7541 6.55012C12.8941 6.35818 12.9641 6.04626 12.9641 5.61442V5.5784C12.9641 5.26648 12.9466 4.8946 12.9116 4.4627C12.8766 4.00685 12.7541 3.57495 12.5442 3.16712C12.3343 2.75922 12.0018 2.41129 11.547 2.12337C11.0921 1.83546 10.4622 1.69153 9.65745 1.69153C8.81771 1.69153 8.17037 1.84746 7.71542 2.15939C7.29555 2.4473 6.98065 2.79517 6.77071 3.20307C6.56078 3.61096 6.43827 4.04286 6.40328 4.49871C6.36829 4.95456 6.35084 5.33844 6.35084 5.65037V14C6.84069 14 7.33054 14.084 7.82038 14.252C6.94566 14.5878 6.45581 15.1277 6.35084 15.8715V22.3856C6.35084 22.6976 6.36829 23.0814 6.40328 23.5373C6.43827 23.9692 6.56078 24.401 6.77071 24.8329C6.98065 25.2408 7.29555 25.5887 7.71542 25.8766C8.17037 26.1645 8.81771 26.3085 9.65745 26.3085C10.4972 26.3085 11.1271 26.1645 11.547 25.8766C12.0018 25.5887 12.3343 25.2408 12.5442 24.8329C12.7541 24.401 12.8766 23.9692 12.9116 23.5373C12.9466 23.0814 12.9641 22.6976 12.9641 22.3856V15.0077C12.5792 15.0317 12.2467 15.1397 11.9668 15.3317C11.7219 15.5236 11.5994 15.7515 11.5994 16.0155V16.0514C11.5644 16.4114 11.4244 16.7232 11.1795 16.9872C10.9696 17.2271 10.6547 17.443 10.2348 17.635C9.81495 17.8029 9.20259 17.8869 8.39775 17.8869V13.3522H17.8453ZM4.30384 12.3085C4.30384 12.1645 4.28639 12.0206 4.25141 11.8766C4.25141 11.7326 4.25141 11.6007 4.25141 11.4807V10.6529C4.21642 10.1251 4.19887 9.62127 4.19887 9.14141C4.19887 8.66156 4.18143 8.20564 4.14644 7.7738C4.11145 7.55785 4.09391 7.36591 4.09391 7.19798C4.09391 7.00597 4.07646 6.81403 4.04147 6.62209C4.04147 6.45415 4.02393 6.29822 3.98894 6.15423C3.98894 5.9863 3.98894 5.84231 3.98894 5.72239C3.98894 5.60241 3.97149 5.49444 3.93641 5.39847C3.93641 5.3025 3.93641 5.21853 3.93641 5.1465V4.96656C3.90142 4.96656 3.88397 4.97857 3.88397 5.00258V5.1465C3.88397 5.21853 3.86643 5.3025 3.83144 5.39847C3.83144 5.49444 3.83144 5.60241 3.83144 5.72239C3.83144 5.84231 3.814 5.9863 3.77901 6.15423C3.77901 6.29822 3.77901 6.45415 3.77901 6.62209C3.74402 6.81403 3.72648 7.00597 3.72648 7.19798C3.72648 7.36591 3.70903 7.55785 3.67404 7.7738C3.63905 8.20564 3.62151 8.66156 3.62151 9.14141C3.62151 9.62127 3.60406 10.1251 3.56907 10.6529V11.4807C3.56907 11.6007 3.55153 11.7326 3.51654 11.8766C3.51654 12.0206 3.51654 12.1645 3.51654 12.3085V15.6555C3.51654 15.7275 3.51654 15.7995 3.51654 15.8715C3.55153 15.9434 3.56907 16.0035 3.56907 16.0514V17.2751C3.56907 17.539 3.56907 17.8029 3.56907 18.0669C3.60406 18.3068 3.62151 18.5467 3.62151 18.7866C3.62151 19.0506 3.62151 19.3025 3.62151 19.5425C3.6565 19.7583 3.67404 19.9623 3.67404 20.1542C3.70903 20.3702 3.72648 20.5741 3.72648 20.7661C3.72648 20.958 3.74402 21.138 3.77901 21.306C3.77901 21.4979 3.77901 21.6658 3.77901 21.8098C3.814 21.9537 3.83144 22.0857 3.83144 22.2056C3.83144 22.3256 3.83144 22.4336 3.83144 22.5296C3.86643 22.6255 3.88397 22.7095 3.88397 22.7815V22.9615C3.88397 22.9855 3.90142 22.9974 3.93641 22.9974V22.7815C3.93641 22.7095 3.93641 22.6255 3.93641 22.5296C3.97149 22.4336 3.98894 22.3256 3.98894 22.2056C3.98894 22.0857 3.98894 21.9537 3.98894 21.8098C4.02393 21.6658 4.04147 21.4979 4.04147 21.306C4.07646 21.138 4.09391 20.958 4.09391 20.7661C4.09391 20.5741 4.11145 20.3702 4.14644 20.1542C4.14644 19.9623 4.14644 19.7583 4.14644 19.5425C4.18143 19.3025 4.19887 19.0506 4.19887 18.7866C4.19887 18.5467 4.19887 18.3068 4.19887 18.0669C4.23386 17.8029 4.25141 17.539 4.25141 17.2751V16.4833C4.25141 16.2914 4.26886 16.1474 4.30384 16.0514V12.3085ZM15.7458 17.527C15.7108 17.2871 15.6934 17.0711 15.6934 16.8792C15.6934 16.6633 15.6759 16.4593 15.6409 16.2674C15.6059 15.9075 15.5533 15.6076 15.4834 15.3676C15.4834 15.3197 15.4659 15.2716 15.4309 15.2237C15.4309 15.1757 15.4309 15.1397 15.4309 15.1157V15.0077L15.3784 15.0437V15.1157C15.3784 15.1397 15.361 15.1757 15.326 15.2237C15.326 15.2716 15.326 15.3197 15.326 15.3676C15.256 15.6076 15.2035 15.9075 15.1685 16.2674C15.1335 16.4593 15.116 16.6633 15.116 16.8792C15.116 17.0711 15.0985 17.2871 15.0635 17.527V17.8869C15.0635 17.9589 15.046 18.0309 15.0111 18.1028C15.0111 18.1508 15.0111 18.1988 15.0111 18.2468V19.7583C15.0111 19.8304 15.0285 19.8903 15.0635 19.9383V20.4782C15.0635 20.5981 15.0635 20.7061 15.0635 20.8021C15.0985 20.8981 15.116 21.006 15.116 21.1259C15.116 21.2459 15.116 21.3539 15.116 21.4499C15.151 21.5458 15.1685 21.6418 15.1685 21.7378C15.2035 21.8338 15.221 21.9297 15.221 22.0257C15.221 22.0977 15.2384 22.1697 15.2734 22.2417C15.2734 22.3136 15.2734 22.3856 15.2734 22.4576C15.3084 22.5296 15.326 22.5896 15.326 22.6375C15.326 22.6856 15.326 22.7335 15.326 22.7815C15.361 22.8295 15.3784 22.8655 15.3784 22.8894V22.9615C15.3784 22.9855 15.3959 22.9974 15.4309 22.9974V22.8894C15.4309 22.8655 15.4309 22.8295 15.4309 22.7815C15.4659 22.7335 15.4834 22.6856 15.4834 22.6375C15.4834 22.5896 15.4834 22.5296 15.4834 22.4576C15.5184 22.3856 15.5359 22.3136 15.5359 22.2417C15.5709 22.1697 15.5883 22.0977 15.5883 22.0257C15.5883 21.9297 15.6059 21.8338 15.6409 21.7378C15.6409 21.6418 15.6409 21.5458 15.6409 21.4499C15.6759 21.3539 15.6934 21.2459 15.6934 21.1259C15.6934 21.006 15.6934 20.8981 15.6934 20.8021C15.7284 20.7061 15.7458 20.5981 15.7458 20.4782V20.1183C15.7458 20.0223 15.7634 19.9623 15.7984 19.9383V18.2468C15.7984 18.1988 15.7808 18.1508 15.7458 18.1028C15.7458 18.0309 15.7458 17.9589 15.7458 17.8869V17.527Z" fill="#F4EDE8"/>
<path d="M42 9.39331C42 10.473 41.5471 11.4447 40.6411 12.3085C39.7353 13.1723 38.5206 13.8441 36.997 14.3239C37.7383 14.6598 38.4176 15.0557 39.0353 15.5116C39.6529 15.9434 40.1677 16.4233 40.5794 16.9512C41.0323 17.479 41.3824 18.0189 41.6294 18.5707C41.8765 19.1226 42 19.6624 42 20.1902V22.4936C41.9588 23.2614 41.6911 23.9811 41.197 24.653C40.7029 25.3008 40.0235 25.8766 39.1588 26.3805C38.2941 26.8603 37.2852 27.2442 36.1324 27.5321C34.9794 27.8441 33.7441 28 32.4264 28H26.6206C26.3324 28 26.0852 27.94 25.8793 27.8201C25.7146 27.7001 25.6323 27.5562 25.6323 27.3882C25.6323 27.5562 25.5294 27.7001 25.3236 27.8201C25.1176 27.94 24.8912 28 24.6441 28H21.3706C21.3706 27.7841 21.4323 27.6281 21.5558 27.5321C21.7206 27.4362 21.8853 27.3282 22.05 27.2083C22.2147 27.1122 22.3588 26.9683 22.4823 26.7764C22.647 26.5844 22.7293 26.2845 22.7293 25.8766V15.8355C22.6058 15.1157 22.0294 14.5878 21 14.252C21.5353 14.06 22.1117 13.9641 22.7293 13.9641V2.12337C22.7293 1.71548 22.647 1.41563 22.4823 1.22362C22.3588 1.03168 22.2147 0.88775 22.05 0.791778C21.8853 0.671798 21.7206 0.563824 21.5558 0.467853C21.4323 0.371882 21.3706 0.215951 21.3706 0H24.6441C24.8912 0 25.1176 0.0599581 25.3236 0.179938C25.5294 0.27591 25.6323 0.407894 25.6323 0.575827C25.6323 0.191942 25.9617 0 26.6206 0H32.4264C33.7441 0 34.9794 0.143924 36.1324 0.431902C37.2852 0.719816 38.2941 1.11571 39.1588 1.61951C40.0235 2.09943 40.7029 2.67526 41.197 3.34706C41.6911 4.01886 41.9588 4.72667 42 5.47043V9.39331ZM26.0647 12.0566C26.0647 11.8886 26.044 11.7326 26.0029 11.5887C26.0029 11.4207 26.0029 11.2648 26.0029 11.1209V10.1851C25.9617 9.56124 25.9412 8.97341 25.9412 8.42159C25.9412 7.86978 25.9205 7.35391 25.8793 6.87405C25.8382 6.61014 25.8176 6.37018 25.8176 6.15423C25.8176 5.93828 25.797 5.73433 25.7558 5.54239C25.7558 5.35045 25.7353 5.17051 25.6941 5.00258C25.6941 4.81063 25.6941 4.65464 25.6941 4.53472C25.6941 4.39073 25.6735 4.25881 25.6323 4.13883C25.6323 4.01885 25.6323 3.92288 25.6323 3.85092V3.63497C25.5911 3.65898 25.5706 3.68292 25.5706 3.70693V3.85092C25.5706 3.92288 25.55 4.01885 25.5088 4.13883C25.5088 4.25881 25.5088 4.39073 25.5088 4.53472C25.5088 4.65464 25.4882 4.81063 25.4471 5.00258C25.4471 5.17051 25.4471 5.35045 25.4471 5.54239C25.4059 5.73433 25.3853 5.93828 25.3853 6.15423C25.3853 6.37018 25.3647 6.61014 25.3236 6.87405C25.2824 7.35391 25.2617 7.86978 25.2617 8.42159C25.2617 8.97341 25.2412 9.56124 25.2 10.1851V11.1209C25.2 11.2648 25.2 11.4207 25.2 11.5887C25.2 11.7326 25.1794 11.8886 25.1382 12.0566V15.9075C25.1382 16.0035 25.1382 16.0874 25.1382 16.1594C25.1794 16.2313 25.2 16.3154 25.2 16.4114V17.779C25.2 18.0908 25.2 18.4027 25.2 18.7147C25.2412 19.0026 25.2617 19.2785 25.2617 19.5425C25.2617 19.8064 25.2617 20.0703 25.2617 20.3342C25.3029 20.5981 25.3236 20.862 25.3236 21.1259C25.3647 21.2459 25.3853 21.3659 25.3853 21.4859C25.3853 21.5819 25.3853 21.6898 25.3853 21.8098C25.3853 21.9297 25.3853 22.0377 25.3853 22.1337C25.4264 22.2296 25.4471 22.3256 25.4471 22.4216C25.4471 22.6135 25.4471 22.8055 25.4471 22.9974C25.4882 23.1654 25.5088 23.3213 25.5088 23.4653C25.5088 23.6093 25.5088 23.7412 25.5088 23.8612C25.55 23.9572 25.5706 24.0412 25.5706 24.1131V24.2931C25.5706 24.3171 25.5911 24.3411 25.6323 24.365V24.1131C25.6323 24.0412 25.6323 23.9572 25.6323 23.8612C25.6735 23.7412 25.6941 23.6093 25.6941 23.4653C25.6941 23.3213 25.6941 23.1654 25.6941 22.9974C25.7353 22.8055 25.7558 22.6135 25.7558 22.4216C25.797 22.3256 25.8176 22.2296 25.8176 22.1337C25.8176 22.0377 25.8176 21.9297 25.8176 21.8098C25.8176 21.6898 25.8176 21.5819 25.8176 21.4859C25.8588 21.3659 25.8793 21.2459 25.8793 21.1259C25.8793 20.862 25.8793 20.5981 25.8793 20.3342C25.9205 20.0703 25.9412 19.8064 25.9412 19.5425C25.9412 19.2785 25.9412 19.0026 25.9412 18.7147C25.9823 18.4027 26.0029 18.0908 26.0029 17.779V16.8792C26.0029 16.6633 26.0235 16.5073 26.0647 16.4114V12.0566ZM38.7882 21.7738C38.747 21.8458 38.7265 21.9657 38.7265 22.1337V22.7815C38.7265 22.9014 38.7058 23.0094 38.6646 23.1054C38.6646 23.2014 38.6646 23.2973 38.6646 23.3933C38.6646 23.4893 38.6441 23.5733 38.6029 23.6453C38.6029 23.7172 38.6029 23.7892 38.6029 23.8612V23.9692C38.5618 23.9931 38.5411 24.0292 38.5411 24.0771V24.2571C38.4999 24.2811 38.4794 24.3051 38.4794 24.3291V24.401C38.4794 24.4251 38.4588 24.4491 38.4176 24.473C38.4176 24.473 38.4176 24.485 38.4176 24.509C38.4176 24.533 38.3971 24.557 38.3559 24.581H38.4176C38.4176 24.581 38.4382 24.557 38.4794 24.509C38.4794 24.509 38.4999 24.485 38.5411 24.4371C38.5823 24.413 38.6029 24.389 38.6029 24.365C38.6441 24.3411 38.6646 24.3171 38.6646 24.2931C38.7058 24.2691 38.7265 24.2451 38.7265 24.2211C38.7676 24.1971 38.7882 24.1611 38.7882 24.1131C38.8706 24.0652 38.9118 24.0051 38.9118 23.9332C38.9942 23.8372 39.0765 23.6693 39.1588 23.4293C39.2412 23.2853 39.2824 23.1894 39.2824 23.1414C39.3235 23.0934 39.3441 23.0454 39.3441 22.9974C39.3441 22.9255 39.3647 22.8655 39.4059 22.8175C39.4059 22.7695 39.4059 22.7215 39.4059 22.6736C39.4471 22.6015 39.4676 22.5416 39.4676 22.4936C39.5088 22.4216 39.5294 22.3136 39.5294 22.1697C39.5706 22.0497 39.5911 21.9297 39.5911 21.8098C39.5911 21.6898 39.6118 21.5699 39.6529 21.4499V19.9383C39.6529 19.8184 39.6323 19.6984 39.5911 19.5784C39.5911 19.4585 39.5706 19.3385 39.5294 19.2185C39.5294 19.0745 39.5088 18.9666 39.4676 18.8946C39.4676 18.8466 39.4471 18.7986 39.4059 18.7507C39.4059 18.6786 39.4059 18.6187 39.4059 18.5707C39.3647 18.5227 39.3441 18.4748 39.3441 18.4267C39.3441 18.3548 39.3235 18.2948 39.2824 18.2468C39.2824 18.1988 39.2617 18.1508 39.2206 18.1028C39.2206 18.0549 39.2206 18.0068 39.2206 17.9589C39.1382 17.8149 39.097 17.7309 39.097 17.7069C39.0559 17.635 38.9942 17.551 38.9118 17.455C38.9118 17.3831 38.8706 17.323 38.7882 17.2751C38.7882 17.2031 38.747 17.1431 38.6646 17.0952C38.5823 16.9992 38.5206 16.9272 38.4794 16.8792C38.4382 16.8552 38.4176 16.8312 38.4176 16.8072H38.3559C38.3559 16.8072 38.3764 16.8312 38.4176 16.8792C38.4176 16.9032 38.4176 16.9272 38.4176 16.9512C38.4588 16.9512 38.4794 16.9632 38.4794 16.9872C38.4794 17.0351 38.4999 17.0832 38.5411 17.1311V17.311C38.5823 17.3591 38.6029 17.419 38.6029 17.491C38.6029 17.611 38.6235 17.695 38.6646 17.7429V17.9948C38.7058 18.0908 38.7265 18.1868 38.7265 18.2828C38.7265 18.3788 38.7265 18.4867 38.7265 18.6067V18.9306C38.7265 18.9786 38.7265 19.0386 38.7265 19.1105C38.7676 19.1586 38.7882 19.2065 38.7882 19.2545V21.7738ZM36.2559 20.1902C36.2559 19.8783 36.2352 19.4345 36.1941 18.8586C36.1529 18.2828 36.0088 17.7069 35.7618 17.1311C35.5147 16.5553 35.1235 16.0634 34.5883 15.6555C34.0941 15.2237 33.3529 15.0077 32.3647 15.0077H30.1412C29.6883 15.0077 29.2971 15.1037 28.9677 15.2956C28.6383 15.4876 28.4735 15.7155 28.4735 15.9794V25.3368C28.4735 25.6007 28.6383 25.8287 28.9677 26.0206C29.2971 26.1885 29.6883 26.2845 30.1412 26.3085H32.3647C33.3529 26.3085 34.0941 26.1645 34.5883 25.8766C35.1235 25.5647 35.5147 25.2048 35.7618 24.7969C36.0088 24.389 36.1529 23.9572 36.1941 23.5013C36.2352 23.0454 36.2559 22.6616 36.2559 22.3496V20.1902ZM36.2559 5.61442C36.2559 5.30249 36.2352 4.93061 36.1941 4.49871C36.1529 4.04286 36.0088 3.61096 35.7618 3.20307C35.5147 2.79517 35.1235 2.4473 34.5883 2.15939C34.0941 1.84746 33.3529 1.69153 32.3647 1.69153H30.1412C29.6883 1.69153 29.2971 1.78751 28.9677 1.97945C28.6383 2.17139 28.4735 2.39928 28.4735 2.66325V12.3445C28.4735 12.6084 28.6383 12.8363 28.9677 13.0283C29.2971 13.2202 29.6883 13.3162 30.1412 13.3162H32.3647C33.3529 13.3162 34.0941 13.1723 34.5883 12.8844C35.1235 12.5964 35.5147 12.2485 35.7618 11.8406C36.0088 11.4088 36.1529 10.9769 36.1941 10.545C36.2352 10.0891 36.2559 9.70523 36.2559 9.39331V5.61442ZM39.0353 10.365C39.1177 10.2211 39.1588 10.1251 39.1588 10.0771C39.2412 9.98114 39.2824 9.88517 39.2824 9.7892C39.3235 9.74125 39.3441 9.69323 39.3441 9.64528C39.3441 9.57325 39.3647 9.51329 39.4059 9.46527C39.4059 9.41732 39.4059 9.3693 39.4059 9.32135C39.4471 9.24939 39.4676 9.17736 39.4676 9.1054C39.5088 9.03343 39.5294 8.91346 39.5294 8.74552C39.5706 8.62554 39.5911 8.50556 39.5911 8.38558C39.5911 8.26566 39.6118 8.14569 39.6529 8.02571V7.23392C39.6529 6.97002 39.6529 6.71806 39.6529 6.47816C39.6529 6.21425 39.6323 5.96229 39.5911 5.72239C39.55 5.65037 39.5294 5.59041 39.5294 5.54239C39.5294 5.47043 39.5088 5.41047 39.4676 5.36245C39.4676 5.19452 39.4471 5.07454 39.4059 5.00258C39.3647 4.8826 39.3235 4.77462 39.2824 4.67865C39.2824 4.58268 39.2617 4.48671 39.2206 4.39073C39.1382 4.24681 39.097 4.15084 39.097 4.10282C39.0147 4.00685 38.9735 3.93489 38.9735 3.88687C38.8912 3.7909 38.8295 3.71894 38.7882 3.67098C38.7882 3.59895 38.747 3.539 38.6646 3.49098C38.6235 3.41902 38.5618 3.33505 38.4794 3.23908L38.3559 3.16712V3.20307C38.3559 3.22708 38.3559 3.23908 38.3559 3.23908C38.3971 3.23908 38.4176 3.25108 38.4176 3.27509C38.4588 3.29904 38.4794 3.33505 38.4794 3.38301C38.4794 3.43102 38.4999 3.47898 38.5411 3.52699V3.70693C38.5823 3.75495 38.6029 3.82691 38.6029 3.92288C38.6029 3.97084 38.6029 4.01885 38.6029 4.06681C38.6441 4.09082 38.6646 4.12683 38.6646 4.17478V4.42675C38.7058 4.52272 38.7265 4.61869 38.7265 4.71466C38.7265 4.81063 38.7265 4.91861 38.7265 5.03859V5.39847C38.7265 5.44642 38.7265 5.50644 38.7265 5.5784C38.7676 5.62642 38.7882 5.67438 38.7882 5.72239V8.38558C38.747 8.45761 38.7265 8.57752 38.7265 8.74552V9.42932C38.7265 9.5493 38.7058 9.65722 38.6646 9.75319C38.6646 9.84922 38.6646 9.9452 38.6646 10.0412C38.6646 10.1371 38.6441 10.2331 38.6029 10.3291C38.6029 10.401 38.6029 10.473 38.6029 10.545C38.6029 10.6649 38.5823 10.7369 38.5411 10.7609V10.9769C38.4999 10.9769 38.4794 11.0009 38.4794 11.0488V11.1209C38.4794 11.1448 38.4588 11.1688 38.4176 11.1928C38.4176 11.1928 38.4176 11.2048 38.4176 11.2288C38.4176 11.2528 38.3971 11.2768 38.3559 11.3008L38.4794 11.2288C38.4794 11.2048 38.4794 11.1928 38.4794 11.1928C38.5206 11.1688 38.5411 11.1448 38.5411 11.1209C38.5823 11.1209 38.6029 11.0969 38.6029 11.0488C38.6441 11.0488 38.6646 11.0249 38.6646 10.9769C38.7058 10.9769 38.7265 10.9529 38.7265 10.9049C38.7676 10.8809 38.7882 10.8449 38.7882 10.7969C38.8706 10.7489 38.9118 10.689 38.9118 10.617C38.9942 10.473 39.0353 10.389 39.0353 10.365Z" fill="#FF9000"/>
</svg>
